<svg id="Icone_agua" data-name="Icone agua" xmlns="http://www.w3.org/2000/svg" width="70" height="70" viewBox="0 0 70 70">
  <rect id="Retângulo" width="70" height="70" fill="none"/>
  <path id="União" d="M2.534,68a3.138,3.138,0,0,1-2.27-3.062C.265,61.322.01,21.47,0,19.776v-.013L9.9,6.5H20.253L30,19.763V64.942a3.4,3.4,0,0,1-.988,2.208A5.6,5.6,0,0,1,24.895,68.5H5.453s-.038,0-.1,0A8.305,8.305,0,0,1,2.534,68ZM4.5,64.5A.5.5,0,0,0,5,65H25a.5.5,0,0,0,.5-.5V50H4.5ZM4,21.569V27.5H26V21.569L22.165,16.5H8.08ZM10.5,5V1.5A1.5,1.5,0,0,1,12,0h6a1.5,1.5,0,0,1,1.5,1.5V5Z" transform="translate(19.501 0.999)" fill="#fff"/>
</svg>
