<svg id="Icone_arvore_70x70" data-name="Icone arvore 70x70" xmlns="http://www.w3.org/2000/svg" width="70" height="70" viewBox="0 0 70 70">
  <rect id="Retângulo" width="70" height="70" fill="none"/>
  <g id="Arvore" transform="translate(3.795 1.354)">
    <path id="Caminho" d="M18.36,106.167V108.3c.227.48.3,1.209.523,1.732,1.755,4.157,6.093,5.435,9.568,2.745.291.229.418.484.748.786,5.637,5.141,14.221,1.244,14.117-5.075.262.079.781.455,1.186.657a10.2,10.2,0,0,0,4.752,1.04c3.766-.025,4.837-1.459,5.852-1.869a5.316,5.316,0,0,0,3.927,5.191,6.843,6.843,0,0,0,5.469-.558c.552-.351.905-.734,1.333-.988,2.95,3.653,10.419,2.563,10.709-4.6.963-.767,2.567-1.021,3.673-3.971.248-.661.294-1.55.552-2.146V99.728c-.3-.682-.378-1.689-.672-2.421a5.775,5.775,0,0,0-5.041-3.853,6.76,6.76,0,0,0-5.349-5.811,7.176,7.176,0,0,0-4.578.637,6.4,6.4,0,0,0-1.548,1.151l-1.248,1.484A7.076,7.076,0,0,0,52.107,90.9a5.138,5.138,0,0,0-1.4,3.475c-1.232-1.077-1.43-1.54-.451-3.326a8.4,8.4,0,0,1,2.48-2.567,7.153,7.153,0,0,0-2.168-3.855,7.37,7.37,0,0,0-3.853-2.034,7.571,7.571,0,0,0-4.8.645c-2.166,1.135-1.988,1.676-3.109,2.652-4.008-3.2-9.733-.945-11.348,2.774,2.819,0,7.05,2.04,9.02,3.93.9.866,1.284,1.406.647,3.117a9.371,9.371,0,0,0-2.15-2.563A13.212,13.212,0,0,0,32.074,91.3a9.561,9.561,0,0,0-7.627-.672,8.54,8.54,0,0,0-5.238,4.308c-1.333,3.006-.7,5.034.8,7.442-.3.622-.659,1.009-1.011,1.776-.318.7-.393,1.476-.637,2.015Z" transform="translate(-18.36 -66.768)" fill="#fff" fill-rule="evenodd"/>
    <path id="Caminho-2" data-name="Caminho" d="M76.187,6.55H74.031l-.914.31a5.631,5.631,0,0,0-.748.267,9.764,9.764,0,0,0-3.644,2.964c-1.457-.242-1.906-.61-3.6-.289a8.437,8.437,0,0,0-5.2,3.272,7.04,7.04,0,0,0-.8,1.43L58.567,16.1c-.215.2-.889.43-1.228.653a5.645,5.645,0,0,0-2.276,3.2c-.872,3.243,1.073,4.992,1.393,5.668a4.733,4.733,0,0,0,1.141-.9c2.681-2.255,7.122-2.72,9.857-.932.564-.37,1.031-.994,1.755-1.468A9.005,9.005,0,0,1,76.8,21.132a9.813,9.813,0,0,1,6.2,6.46,8.768,8.768,0,0,1,4.448-.432,12.564,12.564,0,0,1,3.7,1.381,7.693,7.693,0,0,1,4.192-2.474c2.755-.626,3.857.234,5.525.571a7.664,7.664,0,0,0-2.451-10.148c-3.681-2.342-7.691.5-8.871,3.465l-1.1-.325a9.526,9.526,0,0,1,4.179-4.6,14.822,14.822,0,0,0,1.858-.924c-1-3.312-5.477-5.557-9.133-3.992A8.7,8.7,0,0,0,82.677,12.1c-.442-.645-.73-1.371-1.16-2a8.612,8.612,0,0,0-3.15-2.791c-.7-.353-1.7-.5-2.181-.757Z" transform="translate(-47.3 -6.55)" fill="#fff" fill-rule="evenodd"/>
    <path id="Caminho-3" data-name="Caminho" d="M122.3,220.251l-.06,7.661c-.008.027-.031.07-.039.093-.312.9-1.707-1.267-1.949-1.583a23.381,23.381,0,0,0-1.687-2.235c-.463.267-.943.7-1.534,1.048-.546.327-1.267.5-1.722.852.4.63.994,1.162,1.482,1.784s1.011,1.129,1.5,1.751l3.014,3.62c.775.858.54,1.319.393,2.7-.112,1.044-.252,2.063-.4,3.086-.2,1.383-.1,1.681-.9,2.406-.748.68-1.583,1.063-1.689,1.635,4.773-.1,9.548.064,14.321.141-.072-1.255-1.065-.422-2.456-4.087-.347-.916-.215-9.575-.124-9.885.194-.668,3.921-4.643,4.581-5.3l-.575-.349a4.453,4.453,0,0,1-.641-.378c-.444-.3-.852-.686-1.218-.879-.473.535-1.468,1.9-2.2,2.208l0-4.49C127.45,221.144,125.367,220.817,122.3,220.251Z" transform="translate(-95.271 -175.915)" fill="#fff" fill-rule="evenodd"/>
  </g>
</svg>
