<svg id="Icone_desvio_de_aterro_70x70" data-name="Icone desvio de aterro 70x70" xmlns="http://www.w3.org/2000/svg" width="70.001" height="70" viewBox="0 0 70.001 70">
  <rect id="Retângulo" width="70" height="70" transform="translate(0.001)" fill="none"/>
  <path id="União" d="M9704,15004.636V14967s.481-.351,1.145.459,1.2.03,3.4-.181a70.992,70.992,0,0,1,7.132.354,68.06,68.06,0,0,0,8.714.315,108.072,108.072,0,0,1,12.51-.274c.542.041,1.4.012,2.372-.019,2.73-.079,6.4-.162,6.9,1.311.662,1.991.741,3.438,2.149,4.612s2.226,4.414,2.075,6.3,1.725,3.912,1.725,3.912a11.11,11.11,0,0,1,1.424,3.4c.3,1.68,1.913,2.033,2.033,3.088a28.417,28.417,0,0,0,.81,3.336,1.119,1.119,0,0,0,.117.264c.082.14.15.14.218-.109s-.343-1.3.286-1.683.825-.219.81-.588-.81-.81-.81-.81a1.639,1.639,0,0,1,.81.068c.358.154.192.135.4-.068a2.168,2.168,0,0,1,.779-.324s-.395.629-.342.811c.026.09.12.086.233.079a.54.54,0,0,1,.316.056c.218.136.478.109.613.468s.343.26.452.135a1.007,1.007,0,0,1,.9-.414c.645-.022.935.071.893-.323s-.274-.385-.426-.811.245.087.576.324a2.215,2.215,0,0,0,1.149.144s-.769.422-.494.779a.53.53,0,0,0,.807,0,1.148,1.148,0,0,1,1.234.475c.286.5.629-.064.52-.392s-.191-.328-.52-.385-.139-.451.23-.478a1.441,1.441,0,0,1,.256.007.539.539,0,0,0,.606-.267c.316-.426.481-.29.384-.083s-.572.8,0,1.009a4.815,4.815,0,0,0,1.189.279c.316.037.151-.192,0-.468a1.026,1.026,0,0,0-.52-.4,3.012,3.012,0,0,0,.945-.226,1.693,1.693,0,0,0,.52-.568s-.422,1.081,0,1.258a.778.778,0,0,0,.479,0,.881.881,0,0,1,.9.233c.629.558.494.968.9,1.341a1.158,1.158,0,0,1,.479.816c.067.306.6.675.711.728a2.285,2.285,0,0,1,.249,1.152c-.042.327.93-1.314,1.231-1.548l.531-.411v10.943Zm54.508-19.317a2.059,2.059,0,0,1-1.412.711c-.4-.041-.546-.384-.779-.26s-.9-.384-1.081-.67a.933.933,0,0,0-1-.493,1.022,1.022,0,0,1-1.205-1.043,9.263,9.263,0,0,0-.369-1.929,2.08,2.08,0,0,1,.136-1.3c.136-.219.437-.982,1.272-.67s1,.783,1.631.986a7.817,7.817,0,0,1,2.915,2.437c.82,1.163.451,1.755.451,1.755l.957-.233-.682.873-.15.821S9758.933,14984.877,9758.507,14985.318Zm-2.749-8.963c-.426-.919-.542-1.521-.136-1.706a9.513,9.513,0,0,0,1.5-1.435c.606-.58.55-.207.926-.889a1.128,1.128,0,0,1,1.19-.719c.357.049.614-.064.625-.312a6.738,6.738,0,0,0-.169-.994,3.858,3.858,0,0,0,.52.647c.388.418,1.374.316,1.374.316a5.555,5.555,0,0,0-.934.481c-.207.181-.174.181.008.426a3.724,3.724,0,0,1,.595,1.359,1.271,1.271,0,0,1-.227,1.217,3.172,3.172,0,0,1-.293,1.607c-.365.523-.55,1.548-1.876,2.086a1.361,1.361,0,0,1-.524.1C9757.191,14978.546,9756.127,14977.153,9755.758,14976.355Zm-2.388-3.355c-1.337-.516-1.175-1.352-1.548-1.867a3.2,3.2,0,0,1-.319-1.6,1.272,1.272,0,0,1-.253-1.209,3.694,3.694,0,0,1,.572-1.37c.178-.249.215-.249,0-.426a5.51,5.51,0,0,0-.941-.463s.987.079,1.371-.343a3.7,3.7,0,0,0,.5-.659,6.932,6.932,0,0,0-.151,1c.016.244.275.354.633.3a1.123,1.123,0,0,1,1.2.7c.392.674.821.392.945.869a2.212,2.212,0,0,0,.889,1.337c.411.177.306.783-.105,1.71-.355.8-1.193,2.125-2.28,2.125A1.417,1.417,0,0,1,9753.37,14973Zm-13.451-8.627a2.627,2.627,0,1,1,2.629,2.629A2.628,2.628,0,0,1,9739.919,14964.373Zm-8.763,0a2.628,2.628,0,1,1,2.629,2.629A2.631,2.631,0,0,1,9731.156,14964.373Zm-19.272,0a2.628,2.628,0,1,1,2.629,2.629A2.631,2.631,0,0,1,9711.884,14964.373Zm6.556-.343a3.94,3.94,0,0,0-7.851,0h-2.976v0a10.992,10.992,0,0,1-.335-2.673,21.3,21.3,0,0,1,.335-3.269c.02-.026,2.633-4.1,3.134-5.129a2.368,2.368,0,0,1,1.762-1.148h6.082a.883.883,0,0,1,.712.267.8.8,0,0,1,.128.614v3.78h1.069v3.743h.019c.388,0,.994,0,1.668,0h.935l2.6-6.436a1.309,1.309,0,0,1,.795-.753l1.51-3.735-3.461-1.842a1,1,0,0,1-.414-1.352l4-7.517a1,1,0,0,1,1.353-.414l21.953,11.678a.868.868,0,0,1,.7.523l3.766,8.872a.877.877,0,0,1-.467,1.148.836.836,0,0,1-.34.071.87.87,0,0,1-.806-.534l-3-7.058-3.179,5.98a1,1,0,0,1-1.352.414l-17.2-9.146-1.454,3.6a1.309,1.309,0,0,1,.03,1.051l-2.2,5.449c4.206,0,9.772-.008,14.265-.008,4.6,0,7.132,0,7.361.015a.789.789,0,0,1,.622.275c.271.323.327.979.181,2.06a1.878,1.878,0,0,1-1.913,1.477,3.943,3.943,0,0,0-7.855.007h-.9a3.944,3.944,0,0,0-7.859,0v0Zm-8.747-6.107h8.318v-4.146h-5.559Z" transform="translate(-9703.999 -14934.637)" fill="#fff"/>
</svg>
