<svg id="Icone_sair_28x28px" data-name="Icone sair 28x28px" xmlns="http://www.w3.org/2000/svg" width="28" height="28" viewBox="0 0 28 28">
  <rect id="Retângulo" width="28" height="28" fill="none"/>
  <path id="Caminho" d="M653.07,548.4h-3.731a.488.488,0,0,1,0-.977h3.731A1.533,1.533,0,0,0,654.6,545.9v-4.789a.488.488,0,1,1,.977,0V545.9A2.511,2.511,0,0,1,653.07,548.4Z" transform="translate(-637.388 -524.184)" fill="#666"/>
  <path id="Caminho-2" data-name="Caminho" d="M630.766,497.716a.488.488,0,0,1-.488-.488v-4.849a1.533,1.533,0,0,0-1.531-1.531h-11.59a.488.488,0,0,1,0-.977h11.59a2.511,2.511,0,0,1,2.508,2.508v4.849A.488.488,0,0,1,630.766,497.716Z" transform="translate(-613.064 -489.355)" fill="#666"/>
  <path id="Caminho-3" data-name="Caminho" d="M620.743,516.934h-.079l-6.783-2.6a1.63,1.63,0,0,1-1.381-1.716v-20.9A1.61,1.61,0,0,1,613.968,490h.062l6.782,2.02a1.625,1.625,0,0,1,1.4,1.718v21.477A1.61,1.61,0,0,1,620.743,516.934Zm-6.827-25.806a.565.565,0,0,0-.44.591v20.9a.55.55,0,0,0,.491.594h.079l6.762,2.59a.568.568,0,0,0,.426-.589V493.738a.551.551,0,0,0-.491-.594h-.062Z" transform="translate(-609.914 -489.453)" fill="#666"/>
  <path id="Caminho-4" data-name="Caminho" d="M675.268,530.477h-9.28a.488.488,0,0,1,0-.977h9.28a.488.488,0,0,1,0,.977Z" transform="translate(-650.673 -517.74)" fill="#666"/>
  <path id="Caminho-5" data-name="Caminho" d="M690.111,522.925a.488.488,0,0,1-.345-.834l3.428-3.429-3.539-3.318a.488.488,0,0,1,.668-.713l3.636,3.409a.853.853,0,0,1,.268.606.841.841,0,0,1-.249.614l-3.522,3.522A.486.486,0,0,1,690.111,522.925Zm3.18-4.172h0Z" transform="translate(-668.813 -506.49)" fill="#666"/>
</svg>
