<svg id="icone_oleo_70x70" data-name="icone oleo 70x70" xmlns="http://www.w3.org/2000/svg" width="70" height="70" viewBox="0 0 70 70">
  <rect id="Retângulo_3209" data-name="Retângulo 3209" width="70" height="70" fill="none"/>
  <g id="Oleo" transform="translate(8.773 0.687)">
    <path id="Caminho" d="M57.342,223.98c-.572.134-2.142.8-2.142,1.61,0,3.948,17.964,4.831,21.168,4.831,7.223,0,15.419-.079,22.123-2.129,1.419-.434,3.868-1.268,3.868-2.835,0-.6-1.58-1.345-2.142-1.477V203.05c-3.7,1.779-11.375,2.2-15.549,2.543-.93.077-2-.046-2.942.006-.6.031-.643.13-1.333.141l-4.434-.132c-.973-.081-2.095.066-3.068-.014-4.064-.337-11.954-.815-15.549-2.543Z" transform="translate(-53.052 -161.794)" fill="#fff" fill-rule="evenodd"/>
    <path id="Caminho-2" data-name="Caminho" d="M74.592,70.9c1.027,0,2.607,3.66,3.273,4.773a21.029,21.029,0,0,1,1.36,2.661c1.322,3.207,2.831,5.878.614,9.089a6.375,6.375,0,0,1-11.587-2.932c-.444-2.936,3.616-10.03,5.24-12.681C73.714,71.442,74.069,70.9,74.592,70.9ZM52.084,87.4c-2.723.635-3.576,3.96,1.655,5.721,9.957,3.348,31.632,3.335,41.606.033,1.262-.418,3.9-1.639,3.9-3.2A2.4,2.4,0,0,0,97.1,87.4V66.87c-1.384.323-2.556.908-4.878,1.419a44.984,44.984,0,0,1-5.56.873,76.915,76.915,0,0,1-8.994.521c-.736,0-.862.106-1.469.139l-3.085,0c-.676-.021-.742-.134-1.465-.145-1.008-.012-2.238.081-3.215,0a82.563,82.563,0,0,1-11.362-1.366l-4.99-1.444Z" transform="translate(-48.865 -53.744)" fill="#fff" fill-rule="evenodd"/>
    <path id="Caminho-3" data-name="Caminho" d="M55.54,9.9c.75-1.121,3.537-1.121,4.287,0-.248.468-.19.511-.777.7a4.088,4.088,0,0,1-2.626.029A1.174,1.174,0,0,1,55.54,9.9ZM67.354,3.32h6.4c7.691.194,15.166,1.1,18.9,2.95,1.99.983,3.616,1.92,3.616,4.3,0,3.323-6.808,4.972-9.391,5.491-8.707,1.746-30.663,2.11-38.447-1.734-2.091-1.03-3.616-1.966-3.616-4.3a3.388,3.388,0,0,1,1.372-2.383c1.771-1.643,5.6-2.621,8.019-3.106A82.587,82.587,0,0,1,67.354,3.32Z" transform="translate(-44.82 -3.32)" fill="#fff" fill-rule="evenodd"/>
    <path id="Caminho-4" data-name="Caminho" d="M159.6,148.64c0,1.734,3.834,1.794,4.326.292a1.176,1.176,0,0,0-.987-1.459c-.4-.027-.662.238-.981.3C161.623,147.839,159.6,146.794,159.6,148.64Z" transform="translate(-135.887 -117.677)" fill="#fff" fill-rule="evenodd"/>
  </g>
</svg>
