<svg id="Icone_organico" data-name="Icone organico" xmlns="http://www.w3.org/2000/svg" width="70" height="70.342" viewBox="0 0 70 70.342">
  <rect id="Retângulo" width="70" height="70" transform="translate(0 0.342)" fill="none"/>
  <g id="Organico" transform="translate(7.998 0)">
    <path id="Subtração" d="M4.9,69.891a3.5,3.5,0,0,1-1.747-.47l-1.4-.811A3.505,3.505,0,0,1,.47,63.829l3.207-5.553a3.544,3.544,0,0,1,.359-.511A201.329,201.329,0,0,1,1.76,33.035,121.02,121.02,0,0,1,3.8,10.35L.991,7a3.5,3.5,0,0,1,.431-4.931L2.665,1.024A3.5,3.5,0,0,1,7.6,1.455L9.459,3.675a36.552,36.552,0,0,1,6.7-1.722,63.3,63.3,0,0,1,10.316-.777l.584,0c9.628.067,15.227,1.379,18.229,2.467l1.094-1.895A3.5,3.5,0,0,1,51.16.469l1.4.812a3.5,3.5,0,0,1,1.281,4.781L50.753,11.42a77.161,77.161,0,0,1,2.433,21.615c-.252,12.5-.794,21.8-2.619,26.568l2.759,3.29a3.5,3.5,0,0,1-.432,4.93l-1.242,1.043a3.5,3.5,0,0,1-4.931-.431L43.5,64.6a93.425,93.425,0,0,1-18,2.011c-.69,0-1.292-.017-1.787-.051l-.871-.059c-4.359-.295-10.33-.7-13.164-1.379L7.937,68.14A3.512,3.512,0,0,1,4.9,69.891ZM10.085,13.95V54.187h34.49V13.95Z" fill="#fff"/>
    <path id="União" d="M11.268,30.078s-1.243,1.418-5.586-.335S0,21.472,0,21.472s.835,1.045,4.3,1.8,6.965,4.386,6.965,4.386V20.5s-1.243,1.422-5.586-.335S0,11.89,0,11.89s.835,1.045,4.3,1.8,6.965,4.385,6.965,4.385V11.938c-.478-.288-2.3-1.594-2.853-5.02C7.781,2.964,11.663,0,11.663,0s2.542,3.6,2.47,6.918A6.642,6.642,0,0,1,11.382,12s-.042-.021-.114-.064V30.078Zm.226,0V27.654s3.5-3.634,6.968-4.386,4.3-1.8,4.3-1.8-1.336,6.518-5.682,8.271a10.168,10.168,0,0,1-3.726.876A2.5,2.5,0,0,1,11.493,30.078Zm0-9.582V18.072s3.5-3.633,6.968-4.385,4.3-1.8,4.3-1.8-1.336,6.518-5.682,8.271a10.155,10.155,0,0,1-3.725.878A2.5,2.5,0,0,1,11.493,20.5Z" transform="translate(15.891 18.081)" fill="none" stroke="#fff" stroke-linecap="round" stroke-linejoin="round" stroke-width="2"/>
  </g>
</svg>
